<mxfile host="app.diagrams.net" modified="2023-05-16T09:26:24.592Z" agent="Mozilla/5.0 (Windows NT 10.0; Win64; x64) AppleWebKit/537.36 (KHTML, like Gecko) Chrome/113.0.0.0 Safari/537.36" version="21.3.2" etag="gpHUr_82DWm65ONbUqcR" type="github">
  <diagram name="第 1 页" id="KlmC06asjwrZkPGoYS5X">
    <mxGraphModel>
      <root>
        <mxCell id="0" />
        <mxCell id="1" parent="0" />
      </root>
    </mxGraphModel>
  </diagram>
</mxfile>
